<mxfile host="app.diagrams.net" agent="Mozilla/5.0 (Windows NT 10.0; Win64; x64) AppleWebKit/537.36 (KHTML, like Gecko) Chrome/136.0.0.0 Safari/537.36" version="27.0.3">
  <diagram name="Execution数据结构" id="JNBOJbX7-IPzlRhxeIQb">
    <mxGraphModel dx="1367" dy="1013" grid="0" gridSize="10" guides="1" tooltips="1" connect="1" arrows="1" fold="1" page="0" pageScale="1" pageWidth="850" pageHeight="1100" math="0" shadow="0">
      <root>
        <mxCell id="0" />
        <mxCell id="1" parent="0" />
        <mxCell id="9oxhp9jp_5ilO0bYH4hu-2" value="&lt;p style=&quot;margin:0px;margin-top:4px;text-align:center;&quot;&gt;&lt;b&gt;Execution&lt;/b&gt;&lt;/p&gt;&lt;hr size=&quot;1&quot;&gt;&lt;p style=&quot;margin:0 0 0 4px;line-height:1.6;&quot;&gt;&lt;b&gt;标识信息&lt;/b&gt;&lt;/p&gt;&lt;p style=&quot;margin:0 0 0 14px;line-height:1.6;&quot;&gt;+ Id: string 【唯一标识符】&lt;br&gt;+ JobName: string 【关联的任务名称】&lt;br&gt;+ NodeName: string 【执行节点名称】&lt;/p&gt;&lt;p style=&quot;margin:0 0 0 4px;line-height:1.6;&quot;&gt;&lt;b&gt;时间信息&lt;/b&gt;&lt;/p&gt;&lt;p style=&quot;margin:0 0 0 14px;line-height:1.6;&quot;&gt;+ StartedAt: time.Time 【开始时间】&lt;br&gt;+ FinishedAt: time.Time 【结束时间】&lt;/p&gt;&lt;p style=&quot;margin:0 0 0 4px;line-height:1.6;&quot;&gt;&lt;b&gt;结果信息&lt;/b&gt;&lt;/p&gt;&lt;p style=&quot;margin:0 0 0 14px;line-height:1.6;&quot;&gt;+ Success: bool 【是否成功】&lt;br&gt;+ Output: string 【执行输出】&lt;/p&gt;&lt;p style=&quot;margin:0 0 0 4px;line-height:1.6;&quot;&gt;&lt;b&gt;分组与重试&lt;/b&gt;&lt;/p&gt;&lt;p style=&quot;margin:0 0 0 14px;line-height:1.6;&quot;&gt;+ Group: int64 【执行组标识】&lt;br&gt;+ Attempt: uint 【重试计数】&lt;/p&gt;&lt;hr size=&quot;1&quot;&gt;&lt;p style=&quot;margin:0 0 0 4px;line-height:1.6;&quot;&gt;+ Key(): string&lt;br&gt;+ GetGroup(): string&lt;br&gt;+ CalculateExponentialBackoff(): time.Duration&lt;br&gt;+ ToProto(): *proto.Execution&lt;/p&gt;" style="verticalAlign=top;align=left;overflow=fill;fontSize=14;fontFamily=Helvetica;html=1;rounded=1;shadow=0;comic=0;labelBackgroundColor=none;strokeWidth=2;fillColor=#dae8fc;strokeColor=#6c8ebf;" parent="1" vertex="1">
          <mxGeometry x="200" y="-35" width="360" height="465" as="geometry" />
        </mxCell>
        <mxCell id="9oxhp9jp_5ilO0bYH4hu-4" value="&lt;p style=&quot;margin:0px;margin-top:4px;text-align:center;&quot;&gt;&lt;b&gt;proto.Execution&lt;/b&gt;&lt;/p&gt;&lt;hr size=&quot;1&quot;&gt;&lt;p style=&quot;margin:0 0 0 4px;line-height:1.6;&quot;&gt;+ job_name: string&lt;br&gt;+ success: bool&lt;br&gt;+ output: bytes&lt;br&gt;+ node_name: string&lt;br&gt;+ group: int64&lt;br&gt;+ attempt: uint32&lt;br&gt;+ started_at: google.protobuf.Timestamp&lt;br&gt;+ finished_at: google.protobuf.Timestamp&lt;/p&gt;" style="verticalAlign=top;align=left;overflow=fill;fontSize=14;fontFamily=Helvetica;html=1;rounded=1;shadow=0;comic=0;labelBackgroundColor=none;strokeWidth=1;fillColor=#d5e8d4;strokeColor=#82b366;" parent="1" vertex="1">
          <mxGeometry x="630" y="70" width="300" height="250" as="geometry" />
        </mxCell>
        <mxCell id="9oxhp9jp_5ilO0bYH4hu-5" value="转换" style="endArrow=open;endFill=0;endSize=12;html=1;rounded=0;exitX=1;exitY=0.5;exitDx=0;exitDy=0;entryX=0;entryY=0.5;entryDx=0;entryDy=0;dashed=1;strokeWidth=1;" parent="1" source="9oxhp9jp_5ilO0bYH4hu-2" target="9oxhp9jp_5ilO0bYH4hu-4" edge="1">
          <mxGeometry width="160" relative="1" as="geometry">
            <mxPoint x="380" y="350" as="sourcePoint" />
            <mxPoint x="540" y="350" as="targetPoint" />
          </mxGeometry>
        </mxCell>
        <mxCell id="9oxhp9jp_5ilO0bYH4hu-13" value="&lt;p style=&quot;margin:0px;margin-top:4px;text-align:center;&quot;&gt;&lt;b&gt;Key()方法&lt;/b&gt;&lt;/p&gt;&lt;hr size=&quot;1&quot;&gt;&lt;p style=&quot;margin:0 0 0 4px;line-height:1.6;&quot;&gt;生成格式为 &quot;{StartedAt纳秒时间戳}-{NodeName}&quot; 的&lt;br&gt;唯一标识符，用于在存储中检索执行记录&lt;/p&gt;" style="shape=note;size=15;align=left;spacingLeft=5;html=1;whiteSpace=wrap;fillColor=#fff2cc;strokeColor=#d6b656;" parent="1" vertex="1">
          <mxGeometry x="-60" y="70" width="190" height="100" as="geometry" />
        </mxCell>
        <mxCell id="9oxhp9jp_5ilO0bYH4hu-14" value="" style="endArrow=none;dashed=1;html=1;dashPattern=1 3;strokeWidth=1;rounded=0;exitX=1;exitY=0.5;exitDx=0;exitDy=0;exitPerimeter=0;entryX=0;entryY=0.334;entryDx=0;entryDy=0;entryPerimeter=0;" parent="1" source="9oxhp9jp_5ilO0bYH4hu-13" target="9oxhp9jp_5ilO0bYH4hu-2" edge="1">
          <mxGeometry width="50" height="50" relative="1" as="geometry">
            <mxPoint x="380" y="350" as="sourcePoint" />
            <mxPoint x="430" y="300" as="targetPoint" />
          </mxGeometry>
        </mxCell>
        <mxCell id="9oxhp9jp_5ilO0bYH4hu-15" value="&lt;p style=&quot;margin:0px;margin-top:4px;text-align:center;&quot;&gt;&lt;b&gt;重试机制&lt;/b&gt;&lt;/p&gt;&lt;hr size=&quot;1&quot;&gt;&lt;p style=&quot;margin:0 0 0 4px;line-height:1.6;&quot;&gt;Attempt字段记录尝试次数，&lt;br&gt;CalculateExponentialBackoff()方法&lt;br&gt;实现指数退避算法计算重试间隔&lt;/p&gt;" style="shape=note;size=15;align=left;spacingLeft=5;html=1;whiteSpace=wrap;fillColor=#fff2cc;strokeColor=#d6b656;" parent="1" vertex="1">
          <mxGeometry x="-70" y="220" width="200" height="100" as="geometry" />
        </mxCell>
        <mxCell id="9oxhp9jp_5ilO0bYH4hu-16" value="" style="endArrow=none;dashed=1;html=1;dashPattern=1 3;strokeWidth=1;rounded=0;exitX=1;exitY=0.5;exitDx=0;exitDy=0;exitPerimeter=0;entryX=0;entryY=0.667;entryDx=0;entryDy=0;entryPerimeter=0;" parent="1" source="9oxhp9jp_5ilO0bYH4hu-15" target="9oxhp9jp_5ilO0bYH4hu-2" edge="1">
          <mxGeometry width="50" height="50" relative="1" as="geometry">
            <mxPoint x="380" y="350" as="sourcePoint" />
            <mxPoint x="430" y="300" as="targetPoint" />
          </mxGeometry>
        </mxCell>
      </root>
    </mxGraphModel>
  </diagram>
</mxfile>
